<?xml version="1.0" encoding="utf-8"?>
<!-- Generator: Adobe Illustrator 21.0.0, SVG Export Plug-In . SVG Version: 6.00 Build 0)  -->
<svg version="1.0" xmlns="http://www.w3.org/2000/svg" xmlns:xlink="http://www.w3.org/1999/xlink" x="0px" y="0px"
	 viewBox="0 0 213 82.5" enable-background="new 0 0 213 82.5" xml:space="preserve">
<g id="svg1">
	<title>Mesa de trabajo 1</title>
	<g>
		<polygon fill="none" stroke="#E8AA5C" stroke-miterlimit="10" points="127.7,71.9 200.9,71.9 164.1,40.6 		"/>
		<polygon fill="none" stroke="#E8AA5C" stroke-miterlimit="10" points="104.4,40.9 104.4,8.7 8.4,8.7 53.2,40.9 		"/>
		<polygon fill="none" stroke="#E8AA5C" stroke-miterlimit="10" points="8.4,8.7 8.4,72.2 53.2,40.2 		"/>
		<polygon fill="none" stroke="#E8AA5C" stroke-miterlimit="10" points="201.4,40.6 104.4,40.6 104.4,41.2 104.4,40.6 53.3,40.6 
			8.6,71.9 127.4,71.9 163.6,41.2 200.4,71.9 201.4,71.9 		"/>
	</g>
</g>
<g id="Capa_2">
	<path fill="#E8AA5C" d="M-506.8-69.8c-14.8,0-26.8-12-26.8-26.8s12-26.8,26.8-26.8s26.8,12,26.8,26.8S-492-69.8-506.8-69.8z
		 M-506.8-120.4c-13.1,0-23.8,10.7-23.8,23.8s10.7,23.8,23.8,23.8s23.8-10.7,23.8-23.8S-493.6-120.4-506.8-120.4z"/>
	<path fill="#E8AA5C" d="M-522.4-106.4c10.2,0,20.4,0,30.7,0c1.9,0,1.9-3,0-3c-10.2,0-20.4,0-30.7,0
		C-524.4-109.4-524.4-106.4-522.4-106.4L-522.4-106.4z"/>
	<path fill="#E8AA5C" d="M-522.4-95.1c10.2,0,20.4,0,30.7,0c1.9,0,1.9-3,0-3c-10.2,0-20.4,0-30.7,0
		C-524.4-98.1-524.4-95.1-522.4-95.1L-522.4-95.1z"/>
	<path fill="#E8AA5C" d="M-522.4-83.8c10.2,0,20.4,0,30.7,0c1.9,0,1.9-3,0-3c-10.2,0-20.4,0-30.7,0
		C-524.4-86.8-524.4-83.8-522.4-83.8L-522.4-83.8z"/>
	<path fill="#E8AA5C" d="M-440.3-59.1c-14.8,0-26.8-12-26.8-26.8s12-26.8,26.8-26.8s26.8,12,26.8,26.8S-425.5-59.1-440.3-59.1z
		 M-440.3-109.8c-13.1,0-23.8,10.7-23.8,23.8s10.7,23.8,23.8,23.8s23.8-10.7,23.8-23.8S-427.1-109.8-440.3-109.8z"/>
	<path fill="#E8AA5C" d="M-449.9-73.7c7-7.5,13.9-15,20.9-22.4c1.3-1.4-0.9-3.5-2.2-2c-7,7.5-13.9,15-20.9,22.4
		C-453.5-74.4-451.3-72.3-449.9-73.7L-449.9-73.7z"/>
	<path fill="#E8AA5C" d="M-428.9-76c-7.1-7.4-14.2-14.7-21.3-22.1c-1.3-1.4-3.5,0.7-2.2,2.1c7.1,7.4,14.2,14.7,21.3,22.1
		C-429.7-72.5-427.5-74.6-428.9-76L-428.9-76z"/>
</g>
</svg>
