<?xml version="1.0" encoding="utf-8"?>
<!-- Generator: Adobe Illustrator 21.0.0, SVG Export Plug-In . SVG Version: 6.00 Build 0)  -->
<svg version="1.0" xmlns="http://www.w3.org/2000/svg" xmlns:xlink="http://www.w3.org/1999/xlink" x="0px" y="0px"
	 viewBox="0 0 53.7 53.7" enable-background="new 0 0 53.7 53.7" xml:space="preserve">
<g id="svg1">
</g>
<g id="Capa_2">
	<path fill="#E8AA5C" d="M26.8,53.7C12,53.7,0,41.6,0,26.8S12,0,26.8,0s26.8,12,26.8,26.8S41.6,53.7,26.8,53.7z M26.8,3
		C13.7,3,3,13.7,3,26.8s10.7,23.8,23.8,23.8S50.7,40,50.7,26.8S40,3,26.8,3z"/>
	<path fill="#E8AA5C" d="M11.2,17c10.2,0,20.4,0,30.7,0c1.9,0,1.9-3,0-3c-10.2,0-20.4,0-30.7,0C9.2,14,9.2,17,11.2,17L11.2,17z"/>
	<path fill="#E8AA5C" d="M11.2,28.3c10.2,0,20.4,0,30.7,0c1.9,0,1.9-3,0-3c-10.2,0-20.4,0-30.7,0C9.2,25.3,9.2,28.3,11.2,28.3
		L11.2,28.3z"/>
	<path fill="#E8AA5C" d="M11.2,39.7c10.2,0,20.4,0,30.7,0c1.9,0,1.9-3,0-3c-10.2,0-20.4,0-30.7,0C9.2,36.7,9.2,39.7,11.2,39.7
		L11.2,39.7z"/>
</g>
</svg>
