<!--?xml version="1.0" encoding="utf-8"?-->
<!-- Generator: Adobe Illustrator 21.0.0, SVG Export Plug-In . SVG Version: 6.00 Build 0)  -->
<svg version="1.1" xmlns="http://www.w3.org/2000/svg" xmlns:xlink="http://www.w3.org/1999/xlink" x="0px" y="0px" viewBox="0 0 56 56" style="enable-background:new 0 0 56 56;" xml:space="preserve">
	<g id="svg1-menu">
		<path class="st0 WsRtWYzP_0" d="M662.8,196.5L736,196.5L699.2,165.2Z"></path>
		<path class="st0 WsRtWYzP_1" d="M639.5,165.5L639.5,133.5L542,133.5L587.5,165.5Z"></path>
		<path class="st0 WsRtWYzP_2" d="M543.5,133.3L543.5,196.8L588.3,164.8Z"></path>
		<path class="st0 WsRtWYzP_3" d="M736.5,164.5L639.5,164.5L639.5,165.2L639.5,164.5L588.4,164.5L543.7,196.5L662.5,196.5L698.7,165.2L
			735.5,196.5L736.5,196.5Z"></path>
	</g>
<g id="svg1-menu2">
	<path class="st1 WsRtWYzP_4" d="M28.3,54.8c-14.8,0-26.8-12-26.8-26.8s12-26.8,26.8-26.8s26.8,12,26.8,26.8S43.1,54.8,28.3,54.8z M28.3,4.2
		C15.2,4.2,4.5,14.9,4.5,28s10.7,23.8,23.8,23.8S52.2,41.1,52.2,28S41.5,4.2,28.3,4.2z"></path>
	<path class="st1 WsRtWYzP_5" d="M12.7,18.2c10.2,0,20.4,0,30.7,0c1.9,0,1.9-3,0-3c-10.2,0-20.4,0-30.7,0C10.7,15.2,10.7,18.2,12.7,18.2
		L12.7,18.2z"></path>
	<path class="st1 WsRtWYzP_6" d="M12.7,29.5c10.2,0,20.4,0,30.7,0c1.9,0,1.9-3,0-3c-10.2,0-20.4,0-30.7,0C10.7,26.5,10.7,29.5,12.7,29.5
		L12.7,29.5z"></path>
	<path class="st1 WsRtWYzP_7" d="M12.7,40.8c10.2,0,20.4,0,30.7,0c1.9,0,1.9-3,0-3c-10.2,0-20.4,0-30.7,0C10.7,37.8,10.7,40.8,12.7,40.8
		L12.7,40.8z"></path>
</g>
</svg>
